<svg xmlns="http://www.w3.org/2000/svg" xmlns:xlink="http://www.w3.org/1999/xlink" width="500" zoomAndPan="magnify" viewBox="0 0 375 374.999991" height="500" preserveAspectRatio="xMidYMid meet" version="1.0"><defs><g/><clipPath id="1bd58716c7"><path d="M 137.839844 105.910156 L 155.664062 105.910156 L 155.664062 252.160156 L 137.839844 252.160156 Z M 137.839844 105.910156 " clip-rule="nonzero"/></clipPath></defs><g fill="#000000" fill-opacity="1"><g transform="translate(26.474715, 252.052851)"><g><path d="M 17.171875 -57.96875 L 17.171875 -12.25 L 22.453125 -12.25 C 24.148438 -12.3125 25.503906 -12.925781 26.515625 -14.09375 C 27.535156 -15.269531 28.046875 -16.71875 28.046875 -18.4375 L 28.046875 -51.71875 C 28.046875 -53.851562 27.503906 -55.425781 26.421875 -56.4375 C 25.335938 -57.457031 23.929688 -57.96875 22.203125 -57.96875 Z M 3.65625 -1.9375 L 3.65625 -68.34375 C 3.65625 -69.664062 4.234375 -70.328125 5.390625 -70.328125 L 23.015625 -70.328125 C 26.535156 -70.285156 29.691406 -69.570312 32.484375 -68.1875 C 35.285156 -66.800781 37.5 -64.773438 39.125 -62.109375 C 40.75 -59.453125 41.5625 -56.175781 41.5625 -52.28125 L 41.5625 -18.03125 C 41.5625 -14.132812 40.75 -10.859375 39.125 -8.203125 C 37.5 -5.546875 35.285156 -3.519531 32.484375 -2.125 C 29.691406 -0.738281 26.570312 -0.03125 23.125 0 L 5.390625 0 C 4.234375 0 3.65625 -0.644531 3.65625 -1.9375 Z M 3.65625 -1.9375 "/></g></g></g><g fill="#000000" fill-opacity="1"><g transform="translate(70.579326, 252.052851)"><g><path d="M 19.765625 -41.96875 C 18.378906 -41.96875 17.242188 -41.507812 16.359375 -40.59375 C 15.484375 -39.6875 15.046875 -38.65625 15.046875 -37.5 L 15.046875 -31.8125 L 24.28125 -31.8125 L 24.28125 -37.453125 C 24.28125 -38.640625 23.875 -39.6875 23.0625 -40.59375 C 22.25 -41.507812 21.148438 -41.96875 19.765625 -41.96875 Z M 35.875 -15.953125 L 35.875 -14.484375 C 35.875 -11.640625 35.1875 -9.046875 33.8125 -6.703125 C 32.4375 -4.367188 30.515625 -2.503906 28.046875 -1.109375 C 25.578125 0.273438 22.710938 0.96875 19.453125 0.96875 C 17.085938 0.96875 14.851562 0.570312 12.75 -0.21875 C 10.65625 -1.019531 8.816406 -2.125 7.234375 -3.53125 C 5.660156 -4.9375 4.425781 -6.578125 3.53125 -8.453125 C 2.632812 -10.335938 2.1875 -12.347656 2.1875 -14.484375 L 2.1875 -37.59375 C 2.1875 -39.726562 2.632812 -41.71875 3.53125 -43.5625 C 4.425781 -45.414062 5.660156 -47.050781 7.234375 -48.46875 C 8.816406 -49.894531 10.65625 -51.003906 12.75 -51.796875 C 14.851562 -52.597656 17.085938 -53 19.453125 -53 C 21.898438 -53 24.128906 -52.597656 26.140625 -51.796875 C 28.160156 -51.003906 29.90625 -49.894531 31.375 -48.46875 C 32.851562 -47.050781 33.988281 -45.414062 34.78125 -43.5625 C 35.570312 -41.71875 35.96875 -39.726562 35.96875 -37.59375 L 35.96875 -25 C 35.96875 -24.425781 35.78125 -23.96875 35.40625 -23.625 C 35.039062 -23.289062 34.570312 -23.125 34 -23.125 L 15.046875 -23.125 L 15.046875 -14.484375 C 15.046875 -13.359375 15.484375 -12.332031 16.359375 -11.40625 C 17.242188 -10.476562 18.378906 -10.015625 19.765625 -10.015625 C 21.222656 -10.015625 22.335938 -10.492188 23.109375 -11.453125 C 23.890625 -12.421875 24.28125 -13.460938 24.28125 -14.578125 L 24.28125 -16.0625 C 24.28125 -16.363281 24.398438 -16.640625 24.640625 -16.890625 C 24.878906 -17.148438 25.234375 -17.28125 25.703125 -17.28125 L 34.546875 -17.28125 C 34.953125 -17.28125 35.273438 -17.1875 35.515625 -17 C 35.753906 -16.8125 35.875 -16.460938 35.875 -15.953125 Z M 35.875 -15.953125 "/></g></g></g><g fill="#000000" fill-opacity="1"><g transform="translate(108.535715, 252.052851)"><g><path d="M 27.28125 -50.609375 L 27.28125 -43.296875 C 27.28125 -42.617188 27.035156 -42.125 26.546875 -41.8125 C 26.054688 -41.507812 25.503906 -41.359375 24.890625 -41.359375 L 22.3125 -41.359375 C 20.207031 -41.359375 18.507812 -40.65625 17.21875 -39.25 C 15.9375 -37.84375 15.296875 -35.921875 15.296875 -33.484375 L 15.296875 -2.390625 C 15.296875 -1.503906 15.03125 -0.882812 14.5 -0.53125 C 13.976562 -0.175781 13.484375 0 13.015625 0 L 3.96875 0 C 3.519531 0 3.148438 -0.148438 2.859375 -0.453125 C 2.578125 -0.765625 2.4375 -1.207031 2.4375 -1.78125 L 2.4375 -35.21875 C 2.4375 -38.4375 2.96875 -41.171875 4.03125 -43.421875 C 5.101562 -45.671875 6.519531 -47.5 8.28125 -48.90625 C 10.039062 -50.3125 11.96875 -51.34375 14.0625 -52 C 16.164062 -52.664062 18.238281 -53 20.28125 -53 C 21.425781 -53 22.445312 -52.972656 23.34375 -52.921875 C 24.238281 -52.867188 25.0625 -52.757812 25.8125 -52.59375 C 26.789062 -52.320312 27.28125 -51.660156 27.28125 -50.609375 Z M 27.28125 -50.609375 "/></g></g></g><g fill="#000000" fill-opacity="1"><g transform="translate(136.32975, 252.052851)"><g><path d="M 28.09375 -35.71875 L 28.09375 -51.828125 C 28.09375 -53.660156 27.554688 -55.140625 26.484375 -56.265625 C 25.421875 -57.398438 24.007812 -57.96875 22.25 -57.96875 L 17.171875 -57.96875 L 17.171875 -29.671875 L 22.3125 -29.671875 C 24.070312 -29.671875 25.472656 -30.242188 26.515625 -31.390625 C 27.566406 -32.546875 28.09375 -33.988281 28.09375 -35.71875 Z M 3.65625 -1.9375 L 3.65625 -68.34375 C 3.65625 -69.664062 4.234375 -70.328125 5.390625 -70.328125 L 23.328125 -70.328125 C 25.929688 -70.328125 28.347656 -69.859375 30.578125 -68.921875 C 32.816406 -67.992188 34.765625 -66.695312 36.421875 -65.03125 C 38.085938 -63.375 39.378906 -61.4375 40.296875 -59.21875 C 41.210938 -57 41.671875 -54.617188 41.671875 -52.078125 L 41.671875 -35.828125 C 41.671875 -33.285156 41.210938 -30.894531 40.296875 -28.65625 C 39.378906 -26.414062 38.085938 -24.457031 36.421875 -22.78125 C 34.765625 -21.113281 32.816406 -19.800781 30.578125 -18.84375 C 28.347656 -17.894531 25.929688 -17.421875 23.328125 -17.421875 L 17.171875 -17.421875 L 17.171875 -1.9375 C 17.171875 -0.644531 16.613281 0 15.5 0 L 5.390625 0 C 4.234375 0 3.65625 -0.644531 3.65625 -1.9375 Z M 3.65625 -1.9375 "/></g></g></g><g fill="#000000" fill-opacity="1"><g transform="translate(179.164067, 252.052851)"><g><path d="M 27.28125 -50.609375 L 27.28125 -43.296875 C 27.28125 -42.617188 27.035156 -42.125 26.546875 -41.8125 C 26.054688 -41.507812 25.503906 -41.359375 24.890625 -41.359375 L 22.3125 -41.359375 C 20.207031 -41.359375 18.507812 -40.65625 17.21875 -39.25 C 15.9375 -37.84375 15.296875 -35.921875 15.296875 -33.484375 L 15.296875 -2.390625 C 15.296875 -1.503906 15.03125 -0.882812 14.5 -0.53125 C 13.976562 -0.175781 13.484375 0 13.015625 0 L 3.96875 0 C 3.519531 0 3.148438 -0.148438 2.859375 -0.453125 C 2.578125 -0.765625 2.4375 -1.207031 2.4375 -1.78125 L 2.4375 -35.21875 C 2.4375 -38.4375 2.96875 -41.171875 4.03125 -43.421875 C 5.101562 -45.671875 6.519531 -47.5 8.28125 -48.90625 C 10.039062 -50.3125 11.96875 -51.34375 14.0625 -52 C 16.164062 -52.664062 18.238281 -53 20.28125 -53 C 21.425781 -53 22.445312 -52.972656 23.34375 -52.921875 C 24.238281 -52.867188 25.0625 -52.757812 25.8125 -52.59375 C 26.789062 -52.320312 27.28125 -51.660156 27.28125 -50.609375 Z M 27.28125 -50.609375 "/></g></g></g><g fill="#000000" fill-opacity="1"><g transform="translate(206.958102, 252.052851)"><g><path d="M 3 -1.671875 L 3 -50.453125 C 3 -50.929688 3.175781 -51.3125 3.53125 -51.59375 C 3.882812 -51.882812 4.28125 -52.03125 4.71875 -52.03125 L 14.03125 -52.03125 C 14.53125 -52.03125 14.972656 -51.875 15.359375 -51.5625 C 15.753906 -51.257812 15.953125 -50.890625 15.953125 -50.453125 L 15.953125 -1.671875 C 15.953125 -1.128906 15.773438 -0.710938 15.421875 -0.421875 C 15.066406 -0.140625 14.601562 0 14.03125 0 L 4.71875 0 C 3.570312 0 3 -0.554688 3 -1.671875 Z M 16.203125 -65.390625 L 16.203125 -58.375 C 16.203125 -57.425781 15.972656 -56.773438 15.515625 -56.421875 C 15.066406 -56.066406 14.414062 -55.890625 13.5625 -55.890625 L 5.390625 -55.890625 C 4.503906 -55.890625 3.789062 -56.054688 3.25 -56.390625 C 2.707031 -56.734375 2.4375 -57.378906 2.4375 -58.328125 L 2.4375 -65.453125 C 2.4375 -66.222656 2.65625 -66.863281 3.09375 -67.375 C 3.539062 -67.882812 4.285156 -68.140625 5.328125 -68.140625 L 13.5625 -68.140625 C 14.550781 -68.140625 15.238281 -67.898438 15.625 -67.421875 C 16.007812 -66.953125 16.203125 -66.273438 16.203125 -65.390625 Z M 16.203125 -65.390625 "/></g></g></g><g fill="#000000" fill-opacity="1"><g transform="translate(225.910891, 252.052851)"><g><path d="M 36.28125 0 L 26.46875 0 C 26.03125 0 25.664062 -0.148438 25.375 -0.453125 C 25.09375 -0.765625 24.953125 -1.191406 24.953125 -1.734375 L 24.953125 -37.34375 C 24.878906 -38.53125 24.453125 -39.554688 23.671875 -40.421875 C 22.898438 -41.285156 21.816406 -41.71875 20.421875 -41.71875 C 19.035156 -41.71875 17.941406 -41.273438 17.140625 -40.390625 C 16.347656 -39.515625 15.921875 -38.484375 15.859375 -37.296875 L 15.859375 -1.78125 C 15.859375 -0.59375 15.382812 0 14.4375 0 L 4.515625 0 C 4.078125 0 3.710938 -0.148438 3.421875 -0.453125 C 3.140625 -0.765625 3 -1.207031 3 -1.78125 L 3 -37.25 C 3 -39.3125 3.410156 -41.28125 4.234375 -43.15625 C 5.066406 -45.039062 6.238281 -46.71875 7.75 -48.1875 C 9.257812 -49.664062 11.054688 -50.835938 13.140625 -51.703125 C 15.222656 -52.566406 17.515625 -53 20.015625 -53 C 23.804688 -53 27.023438 -52.285156 29.671875 -50.859375 C 32.316406 -49.441406 34.332031 -47.546875 35.71875 -45.171875 C 37.101562 -42.796875 37.796875 -40.171875 37.796875 -37.296875 L 37.796875 -1.734375 C 37.796875 -1.191406 37.648438 -0.765625 37.359375 -0.453125 C 37.078125 -0.148438 36.71875 0 36.28125 0 Z M 36.28125 0 "/></g></g></g><g fill="#000000" fill-opacity="1"><g transform="translate(266.763549, 252.052851)"><g><path d="M 22.203125 0 L 19 0 C 17.039062 0 15.203125 -0.234375 13.484375 -0.703125 C 11.773438 -1.179688 10.273438 -1.988281 8.984375 -3.125 C 7.703125 -4.257812 6.695312 -5.804688 5.96875 -7.765625 C 5.238281 -9.734375 4.875 -12.207031 4.875 -15.1875 L 4.875 -40.703125 L 1.875 -40.703125 C 1.601562 -40.703125 1.28125 -40.863281 0.90625 -41.1875 C 0.539062 -41.507812 0.359375 -41.972656 0.359375 -42.578125 L 0.359375 -50.09375 C 0.359375 -50.769531 0.535156 -51.269531 0.890625 -51.59375 C 1.242188 -51.914062 1.570312 -52.078125 1.875 -52.078125 L 4.875 -52.078125 L 4.875 -59.859375 C 4.875 -60.429688 4.972656 -60.878906 5.171875 -61.203125 C 5.378906 -61.523438 5.753906 -61.753906 6.296875 -61.890625 L 15.796875 -64.6875 C 15.898438 -64.71875 16.054688 -64.734375 16.265625 -64.734375 C 17.273438 -64.734375 17.78125 -64.175781 17.78125 -63.0625 L 17.78125 -52.078125 L 22.921875 -52.078125 C 23.867188 -52.078125 24.34375 -51.453125 24.34375 -50.203125 L 24.34375 -42.578125 C 24.34375 -42.035156 24.195312 -41.585938 23.90625 -41.234375 C 23.613281 -40.878906 23.234375 -40.703125 22.765625 -40.703125 L 17.78125 -40.703125 L 17.78125 -15.953125 C 17.78125 -14.535156 18.117188 -13.441406 18.796875 -12.671875 C 19.472656 -11.910156 20.742188 -11.53125 22.609375 -11.53125 L 23.46875 -11.53125 C 24.21875 -11.53125 24.660156 -11.3125 24.796875 -10.875 C 24.929688 -10.4375 25 -10.03125 25 -9.65625 L 25 -1.625 C 25 -1.289062 24.867188 -0.9375 24.609375 -0.5625 C 24.359375 -0.1875 23.554688 0 22.203125 0 Z M 22.203125 0 "/></g></g></g><g fill="#000000" fill-opacity="1"><g transform="translate(293.439725, 252.052851)"><g><path d="M 19.765625 -41.96875 C 18.378906 -41.96875 17.242188 -41.507812 16.359375 -40.59375 C 15.484375 -39.6875 15.046875 -38.65625 15.046875 -37.5 L 15.046875 -31.8125 L 24.28125 -31.8125 L 24.28125 -37.453125 C 24.28125 -38.640625 23.875 -39.6875 23.0625 -40.59375 C 22.25 -41.507812 21.148438 -41.96875 19.765625 -41.96875 Z M 35.875 -15.953125 L 35.875 -14.484375 C 35.875 -11.640625 35.1875 -9.046875 33.8125 -6.703125 C 32.4375 -4.367188 30.515625 -2.503906 28.046875 -1.109375 C 25.578125 0.273438 22.710938 0.96875 19.453125 0.96875 C 17.085938 0.96875 14.851562 0.570312 12.75 -0.21875 C 10.65625 -1.019531 8.816406 -2.125 7.234375 -3.53125 C 5.660156 -4.9375 4.425781 -6.578125 3.53125 -8.453125 C 2.632812 -10.335938 2.1875 -12.347656 2.1875 -14.484375 L 2.1875 -37.59375 C 2.1875 -39.726562 2.632812 -41.71875 3.53125 -43.5625 C 4.425781 -45.414062 5.660156 -47.050781 7.234375 -48.46875 C 8.816406 -49.894531 10.65625 -51.003906 12.75 -51.796875 C 14.851562 -52.597656 17.085938 -53 19.453125 -53 C 21.898438 -53 24.128906 -52.597656 26.140625 -51.796875 C 28.160156 -51.003906 29.90625 -49.894531 31.375 -48.46875 C 32.851562 -47.050781 33.988281 -45.414062 34.78125 -43.5625 C 35.570312 -41.71875 35.96875 -39.726562 35.96875 -37.59375 L 35.96875 -25 C 35.96875 -24.425781 35.78125 -23.96875 35.40625 -23.625 C 35.039062 -23.289062 34.570312 -23.125 34 -23.125 L 15.046875 -23.125 L 15.046875 -14.484375 C 15.046875 -13.359375 15.484375 -12.332031 16.359375 -11.40625 C 17.242188 -10.476562 18.378906 -10.015625 19.765625 -10.015625 C 21.222656 -10.015625 22.335938 -10.492188 23.109375 -11.453125 C 23.890625 -12.421875 24.28125 -13.460938 24.28125 -14.578125 L 24.28125 -16.0625 C 24.28125 -16.363281 24.398438 -16.640625 24.640625 -16.890625 C 24.878906 -17.148438 25.234375 -17.28125 25.703125 -17.28125 L 34.546875 -17.28125 C 34.953125 -17.28125 35.273438 -17.1875 35.515625 -17 C 35.753906 -16.8125 35.875 -16.460938 35.875 -15.953125 Z M 35.875 -15.953125 "/></g></g></g><g fill="#000000" fill-opacity="1"><g transform="translate(331.396113, 252.052851)"><g><path d="M 27.28125 -50.609375 L 27.28125 -43.296875 C 27.28125 -42.617188 27.035156 -42.125 26.546875 -41.8125 C 26.054688 -41.507812 25.503906 -41.359375 24.890625 -41.359375 L 22.3125 -41.359375 C 20.207031 -41.359375 18.507812 -40.65625 17.21875 -39.25 C 15.9375 -37.84375 15.296875 -35.921875 15.296875 -33.484375 L 15.296875 -2.390625 C 15.296875 -1.503906 15.03125 -0.882812 14.5 -0.53125 C 13.976562 -0.175781 13.484375 0 13.015625 0 L 3.96875 0 C 3.519531 0 3.148438 -0.148438 2.859375 -0.453125 C 2.578125 -0.765625 2.4375 -1.207031 2.4375 -1.78125 L 2.4375 -35.21875 C 2.4375 -38.4375 2.96875 -41.171875 4.03125 -43.421875 C 5.101562 -45.671875 6.519531 -47.5 8.28125 -48.90625 C 10.039062 -50.3125 11.96875 -51.34375 14.0625 -52 C 16.164062 -52.664062 18.238281 -53 20.28125 -53 C 21.425781 -53 22.445312 -52.972656 23.34375 -52.921875 C 24.238281 -52.867188 25.0625 -52.757812 25.8125 -52.59375 C 26.789062 -52.320312 27.28125 -51.660156 27.28125 -50.609375 Z M 27.28125 -50.609375 "/></g></g></g><path fill="#ffffff" d="M 103.714844 223.753906 L 292.9375 223.753906 L 292.9375 237.769531 L 103.714844 237.769531 L 103.714844 223.753906 " fill-opacity="1" fill-rule="nonzero"/><g fill="#000000" fill-opacity="1"><g transform="translate(108.586337, 233.762915)"><g><path d="M 5.09375 0.125 C 4.351562 0.125 3.703125 0 3.140625 -0.25 C 2.585938 -0.5 2.128906 -0.832031 1.765625 -1.25 C 1.398438 -1.675781 1.125 -2.148438 0.9375 -2.671875 C 0.75 -3.203125 0.65625 -3.742188 0.65625 -4.296875 C 0.65625 -4.859375 0.75 -5.398438 0.9375 -5.921875 C 1.125 -6.453125 1.398438 -6.925781 1.765625 -7.34375 C 2.128906 -7.769531 2.585938 -8.101562 3.140625 -8.34375 C 3.703125 -8.59375 4.351562 -8.71875 5.09375 -8.71875 C 5.820312 -8.71875 6.460938 -8.59375 7.015625 -8.34375 C 7.578125 -8.101562 8.039062 -7.769531 8.40625 -7.34375 C 8.78125 -6.925781 9.054688 -6.453125 9.234375 -5.921875 C 9.421875 -5.398438 9.515625 -4.859375 9.515625 -4.296875 C 9.515625 -3.742188 9.421875 -3.203125 9.234375 -2.671875 C 9.054688 -2.148438 8.78125 -1.675781 8.40625 -1.25 C 8.039062 -0.832031 7.578125 -0.5 7.015625 -0.25 C 6.460938 0 5.820312 0.125 5.09375 0.125 Z M 5.09375 -1.65625 C 5.570312 -1.65625 5.988281 -1.75 6.34375 -1.9375 C 6.695312 -2.132812 6.976562 -2.390625 7.1875 -2.703125 C 7.394531 -3.023438 7.535156 -3.375 7.609375 -3.75 C 7.679688 -4.125 7.679688 -4.5 7.609375 -4.875 C 7.535156 -5.25 7.394531 -5.59375 7.1875 -5.90625 C 6.976562 -6.226562 6.695312 -6.484375 6.34375 -6.671875 C 5.988281 -6.859375 5.570312 -6.953125 5.09375 -6.953125 C 4.601562 -6.953125 4.179688 -6.859375 3.828125 -6.671875 C 3.472656 -6.484375 3.191406 -6.226562 2.984375 -5.90625 C 2.773438 -5.59375 2.632812 -5.25 2.5625 -4.875 C 2.488281 -4.5 2.488281 -4.125 2.5625 -3.75 C 2.632812 -3.375 2.773438 -3.023438 2.984375 -2.703125 C 3.191406 -2.390625 3.472656 -2.132812 3.828125 -1.9375 C 4.179688 -1.75 4.601562 -1.65625 5.09375 -1.65625 Z M 5.09375 -1.65625 "/></g></g></g><g fill="#000000" fill-opacity="1"><g transform="translate(124.462361, 233.762915)"><g><path d="M 2.671875 -4.671875 L 2.671875 0 L 0.953125 0 L 0.953125 -8.765625 L 1.421875 -8.765625 L 5.75 -3.71875 L 5.75 -8.5625 L 7.46875 -8.5625 L 7.46875 0.1875 L 7.015625 0.1875 Z M 2.671875 -4.671875 "/></g></g></g><g fill="#000000" fill-opacity="1"><g transform="translate(138.622378, 233.762915)"><g><path d="M 0.953125 -8.578125 L 2.671875 -8.578125 L 2.671875 -1.71875 L 5.40625 -1.71875 L 5.40625 0 L 0.953125 0 Z M 0.953125 -8.578125 "/></g></g></g><g fill="#000000" fill-opacity="1"><g transform="translate(150.25039, 233.762915)"><g><path d="M 2.671875 0 L 0.953125 0 L 0.953125 -8.578125 L 2.671875 -8.578125 Z M 2.671875 0 "/></g></g></g><g fill="#000000" fill-opacity="1"><g transform="translate(159.610401, 233.762915)"><g><path d="M 2.671875 -4.671875 L 2.671875 0 L 0.953125 0 L 0.953125 -8.765625 L 1.421875 -8.765625 L 5.75 -3.71875 L 5.75 -8.5625 L 7.46875 -8.5625 L 7.46875 0.1875 L 7.015625 0.1875 Z M 2.671875 -4.671875 "/></g></g></g><g fill="#000000" fill-opacity="1"><g transform="translate(173.770415, 233.762915)"><g><path d="M 5.40625 0 L 0.953125 0 L 0.953125 -8.578125 L 5.25 -8.578125 L 5.25 -6.859375 L 2.671875 -6.859375 L 2.671875 -5.140625 L 4.9375 -5.140625 L 4.9375 -3.4375 L 2.671875 -3.4375 L 2.671875 -1.71875 L 5.40625 -1.71875 Z M 5.40625 0 "/></g></g></g><g fill="#000000" fill-opacity="1"><g transform="translate(185.53042, 233.762915)"><g/></g></g><g fill="#000000" fill-opacity="1"><g transform="translate(194.650422, 233.762915)"><g><path d="M 2.671875 0 L 0.953125 0 L 0.953125 -8.5625 L 4.328125 -8.5625 C 4.804688 -8.5625 5.21875 -8.460938 5.5625 -8.265625 C 5.90625 -8.078125 6.175781 -7.828125 6.375 -7.515625 C 6.570312 -7.210938 6.703125 -6.867188 6.765625 -6.484375 C 6.835938 -6.109375 6.835938 -5.726562 6.765625 -5.34375 C 6.703125 -4.96875 6.566406 -4.625 6.359375 -4.3125 C 6.160156 -4.007812 5.890625 -3.757812 5.546875 -3.5625 C 5.210938 -3.375 4.804688 -3.28125 4.328125 -3.28125 L 2.671875 -3.28125 Z M 2.671875 -4.9375 L 4.1875 -4.9375 C 4.414062 -4.9375 4.597656 -5 4.734375 -5.125 C 4.867188 -5.257812 4.960938 -5.421875 5.015625 -5.609375 C 5.066406 -5.804688 5.066406 -6 5.015625 -6.1875 C 4.960938 -6.382812 4.867188 -6.546875 4.734375 -6.671875 C 4.597656 -6.796875 4.414062 -6.859375 4.1875 -6.859375 L 2.671875 -6.859375 Z M 2.671875 -4.9375 "/></g></g></g><g fill="#000000" fill-opacity="1"><g transform="translate(207.598438, 233.762915)"><g><path d="M 5.234375 0 L 3.5 -3.28125 L 2.671875 -3.28125 L 2.671875 0 L 0.953125 0 L 0.953125 -8.578125 L 4.34375 -8.578125 C 4.851562 -8.578125 5.285156 -8.46875 5.640625 -8.25 C 6.003906 -8.039062 6.285156 -7.765625 6.484375 -7.421875 C 6.679688 -7.085938 6.800781 -6.722656 6.84375 -6.328125 C 6.894531 -5.929688 6.863281 -5.539062 6.75 -5.15625 C 6.644531 -4.78125 6.460938 -4.445312 6.203125 -4.15625 C 5.941406 -3.863281 5.601562 -3.660156 5.1875 -3.546875 L 7.171875 0 Z M 2.671875 -4.9375 L 4.1875 -4.9375 C 4.414062 -4.9375 4.597656 -5 4.734375 -5.125 C 4.878906 -5.257812 4.972656 -5.421875 5.015625 -5.609375 C 5.066406 -5.804688 5.066406 -6 5.015625 -6.1875 C 4.972656 -6.382812 4.878906 -6.546875 4.734375 -6.671875 C 4.597656 -6.796875 4.414062 -6.859375 4.1875 -6.859375 L 2.671875 -6.859375 Z M 2.671875 -4.9375 "/></g></g></g><g fill="#000000" fill-opacity="1"><g transform="translate(220.666446, 233.762915)"><g><path d="M 2.671875 0 L 0.953125 0 L 0.953125 -8.578125 L 2.671875 -8.578125 Z M 2.671875 0 "/></g></g></g><g fill="#000000" fill-opacity="1"><g transform="translate(230.026453, 233.762915)"><g><path d="M 2.671875 -4.671875 L 2.671875 0 L 0.953125 0 L 0.953125 -8.765625 L 1.421875 -8.765625 L 5.75 -3.71875 L 5.75 -8.5625 L 7.46875 -8.5625 L 7.46875 0.1875 L 7.015625 0.1875 Z M 2.671875 -4.671875 "/></g></g></g><g fill="#000000" fill-opacity="1"><g transform="translate(244.186468, 233.762915)"><g><path d="M 4.09375 0 L 2.375 0 L 2.375 -6.859375 L 0.234375 -6.859375 L 0.234375 -8.5625 L 6.234375 -8.5625 L 6.234375 -6.859375 L 4.09375 -6.859375 Z M 4.09375 0 "/></g></g></g><g fill="#000000" fill-opacity="1"><g transform="translate(256.462475, 233.762915)"><g><path d="M 2.671875 0 L 0.953125 0 L 0.953125 -8.578125 L 2.671875 -8.578125 Z M 2.671875 0 "/></g></g></g><g fill="#000000" fill-opacity="1"><g transform="translate(265.822483, 233.762915)"><g><path d="M 2.671875 -4.671875 L 2.671875 0 L 0.953125 0 L 0.953125 -8.765625 L 1.421875 -8.765625 L 5.75 -3.71875 L 5.75 -8.5625 L 7.46875 -8.5625 L 7.46875 0.1875 L 7.015625 0.1875 Z M 2.671875 -4.671875 "/></g></g></g><g fill="#000000" fill-opacity="1"><g transform="translate(279.982497, 233.762915)"><g><path d="M 7.15625 -0.53125 C 6.820312 -0.34375 6.46875 -0.195312 6.09375 -0.09375 C 5.726562 0 5.34375 0.046875 4.9375 0.046875 C 4.226562 0.046875 3.601562 -0.0703125 3.0625 -0.3125 C 2.519531 -0.550781 2.066406 -0.875 1.703125 -1.28125 C 1.335938 -1.6875 1.0625 -2.140625 0.875 -2.640625 C 0.6875 -3.148438 0.585938 -3.675781 0.578125 -4.21875 C 0.566406 -4.769531 0.644531 -5.300781 0.8125 -5.8125 C 0.988281 -6.320312 1.253906 -6.785156 1.609375 -7.203125 C 1.972656 -7.628906 2.429688 -7.96875 2.984375 -8.21875 C 3.535156 -8.476562 4.1875 -8.625 4.9375 -8.65625 C 5.28125 -8.664062 5.59375 -8.644531 5.875 -8.59375 C 6.15625 -8.550781 6.390625 -8.5 6.578125 -8.4375 C 6.765625 -8.382812 6.882812 -8.351562 6.9375 -8.34375 L 6.734375 -6.59375 C 6.566406 -6.664062 6.335938 -6.738281 6.046875 -6.8125 C 5.753906 -6.894531 5.382812 -6.925781 4.9375 -6.90625 C 4.4375 -6.894531 4.007812 -6.785156 3.65625 -6.578125 C 3.3125 -6.378906 3.035156 -6.125 2.828125 -5.8125 C 2.628906 -5.507812 2.5 -5.171875 2.4375 -4.796875 C 2.375 -4.429688 2.378906 -4.0625 2.453125 -3.6875 C 2.523438 -3.320312 2.664062 -2.984375 2.875 -2.671875 C 3.082031 -2.367188 3.359375 -2.125 3.703125 -1.9375 C 4.046875 -1.757812 4.457031 -1.671875 4.9375 -1.671875 C 5.007812 -1.671875 5.085938 -1.675781 5.171875 -1.6875 C 5.253906 -1.695312 5.332031 -1.707031 5.40625 -1.71875 L 5.40625 -4.296875 L 7.15625 -4.296875 Z M 7.15625 -0.53125 "/></g></g></g><path fill="#ffff00" d="M 225.691406 223.695312 L 294.042969 223.695312 L 294.042969 237.828125 L 225.691406 237.828125 L 225.691406 223.695312 " fill-opacity="1" fill-rule="nonzero"/><g fill="#000000" fill-opacity="1"><g transform="translate(230.605574, 233.788103)"><g><path d="M 2.703125 -4.703125 L 2.703125 0 L 0.96875 0 L 0.96875 -8.828125 L 1.421875 -8.828125 L 5.796875 -3.75 L 5.796875 -8.640625 L 7.53125 -8.640625 L 7.53125 0.1875 L 7.078125 0.1875 Z M 2.703125 -4.703125 "/></g></g></g><g fill="#000000" fill-opacity="1"><g transform="translate(244.884583, 233.788103)"><g><path d="M 4.125 0 L 2.390625 0 L 2.390625 -6.921875 L 0.234375 -6.921875 L 0.234375 -8.640625 L 6.28125 -8.640625 L 6.28125 -6.921875 L 4.125 -6.921875 Z M 4.125 0 "/></g></g></g><g fill="#000000" fill-opacity="1"><g transform="translate(257.263754, 233.788103)"><g><path d="M 2.703125 0 L 0.96875 0 L 0.96875 -8.640625 L 2.703125 -8.640625 Z M 2.703125 0 "/></g></g></g><g fill="#000000" fill-opacity="1"><g transform="translate(266.70242, 233.788103)"><g><path d="M 2.703125 -4.703125 L 2.703125 0 L 0.96875 0 L 0.96875 -8.828125 L 1.421875 -8.828125 L 5.796875 -3.75 L 5.796875 -8.640625 L 7.53125 -8.640625 L 7.53125 0.1875 L 7.078125 0.1875 Z M 2.703125 -4.703125 "/></g></g></g><g fill="#000000" fill-opacity="1"><g transform="translate(280.981429, 233.788103)"><g><path d="M 7.203125 -0.53125 C 6.878906 -0.34375 6.53125 -0.195312 6.15625 -0.09375 C 5.78125 0 5.382812 0.046875 4.96875 0.046875 C 4.257812 0.046875 3.632812 -0.0703125 3.09375 -0.3125 C 2.550781 -0.550781 2.09375 -0.875 1.71875 -1.28125 C 1.34375 -1.695312 1.0625 -2.160156 0.875 -2.671875 C 0.6875 -3.179688 0.585938 -3.707031 0.578125 -4.25 C 0.566406 -4.800781 0.648438 -5.332031 0.828125 -5.84375 C 1.003906 -6.363281 1.269531 -6.832031 1.625 -7.25 C 1.988281 -7.675781 2.445312 -8.019531 3 -8.28125 C 3.5625 -8.550781 4.21875 -8.695312 4.96875 -8.71875 C 5.3125 -8.738281 5.625 -8.722656 5.90625 -8.671875 C 6.195312 -8.617188 6.4375 -8.5625 6.625 -8.5 C 6.820312 -8.445312 6.941406 -8.414062 6.984375 -8.40625 L 6.78125 -6.65625 C 6.613281 -6.726562 6.382812 -6.800781 6.09375 -6.875 C 5.800781 -6.945312 5.425781 -6.976562 4.96875 -6.96875 C 4.46875 -6.945312 4.039062 -6.835938 3.6875 -6.640625 C 3.34375 -6.441406 3.066406 -6.179688 2.859375 -5.859375 C 2.648438 -5.546875 2.515625 -5.203125 2.453125 -4.828125 C 2.390625 -4.460938 2.394531 -4.09375 2.46875 -3.71875 C 2.539062 -3.351562 2.679688 -3.015625 2.890625 -2.703125 C 3.109375 -2.390625 3.390625 -2.140625 3.734375 -1.953125 C 4.078125 -1.773438 4.488281 -1.6875 4.96875 -1.6875 C 5.050781 -1.6875 5.128906 -1.691406 5.203125 -1.703125 C 5.285156 -1.710938 5.367188 -1.722656 5.453125 -1.734375 L 5.453125 -4.328125 L 7.203125 -4.328125 Z M 7.203125 -0.53125 "/></g></g></g><path fill="#ff00ff" d="M 168.179688 223.753906 L 228.476562 223.753906 L 228.476562 237.769531 L 168.179688 237.769531 L 168.179688 223.753906 " fill-opacity="1" fill-rule="nonzero"/><g fill="#000000" fill-opacity="1"><g transform="translate(173.053295, 233.762915)"><g><path d="M 5.40625 0 L 0.953125 0 L 0.953125 -8.578125 L 5.25 -8.578125 L 5.25 -6.859375 L 2.671875 -6.859375 L 2.671875 -5.140625 L 4.9375 -5.140625 L 4.9375 -3.4375 L 2.671875 -3.4375 L 2.671875 -1.71875 L 5.40625 -1.71875 Z M 5.40625 0 "/></g></g></g><g fill="#000000" fill-opacity="1"><g transform="translate(184.813302, 233.762915)"><g/></g></g><g fill="#000000" fill-opacity="1"><g transform="translate(193.933306, 233.762915)"><g><path d="M 2.671875 0 L 0.953125 0 L 0.953125 -8.5625 L 4.328125 -8.5625 C 4.804688 -8.5625 5.21875 -8.460938 5.5625 -8.265625 C 5.90625 -8.078125 6.175781 -7.828125 6.375 -7.515625 C 6.570312 -7.210938 6.703125 -6.867188 6.765625 -6.484375 C 6.835938 -6.109375 6.835938 -5.726562 6.765625 -5.34375 C 6.703125 -4.96875 6.566406 -4.625 6.359375 -4.3125 C 6.160156 -4.007812 5.890625 -3.757812 5.546875 -3.5625 C 5.210938 -3.375 4.804688 -3.28125 4.328125 -3.28125 L 2.671875 -3.28125 Z M 2.671875 -4.9375 L 4.1875 -4.9375 C 4.414062 -4.9375 4.597656 -5 4.734375 -5.125 C 4.867188 -5.257812 4.960938 -5.421875 5.015625 -5.609375 C 5.066406 -5.804688 5.066406 -6 5.015625 -6.1875 C 4.960938 -6.382812 4.867188 -6.546875 4.734375 -6.671875 C 4.597656 -6.796875 4.414062 -6.859375 4.1875 -6.859375 L 2.671875 -6.859375 Z M 2.671875 -4.9375 "/></g></g></g><g fill="#000000" fill-opacity="1"><g transform="translate(206.881324, 233.762915)"><g><path d="M 5.234375 0 L 3.5 -3.28125 L 2.671875 -3.28125 L 2.671875 0 L 0.953125 0 L 0.953125 -8.578125 L 4.34375 -8.578125 C 4.851562 -8.578125 5.285156 -8.46875 5.640625 -8.25 C 6.003906 -8.039062 6.285156 -7.765625 6.484375 -7.421875 C 6.679688 -7.085938 6.800781 -6.722656 6.84375 -6.328125 C 6.894531 -5.929688 6.863281 -5.539062 6.75 -5.15625 C 6.644531 -4.78125 6.460938 -4.445312 6.203125 -4.15625 C 5.941406 -3.863281 5.601562 -3.660156 5.1875 -3.546875 L 7.171875 0 Z M 2.671875 -4.9375 L 4.1875 -4.9375 C 4.414062 -4.9375 4.597656 -5 4.734375 -5.125 C 4.878906 -5.257812 4.972656 -5.421875 5.015625 -5.609375 C 5.066406 -5.804688 5.066406 -6 5.015625 -6.1875 C 4.972656 -6.382812 4.878906 -6.546875 4.734375 -6.671875 C 4.597656 -6.796875 4.414062 -6.859375 4.1875 -6.859375 L 2.671875 -6.859375 Z M 2.671875 -4.9375 "/></g></g></g><g fill="#000000" fill-opacity="1"><g transform="translate(219.949335, 233.762915)"><g><path d="M 2.671875 0 L 0.953125 0 L 0.953125 -8.578125 L 2.671875 -8.578125 Z M 2.671875 0 "/></g></g></g><g clip-path="url(#1bd58716c7)"><path fill="#000000" d="M 142.496094 161.945312 C 143.207031 160.929688 144.085938 160.164062 145.066406 159.753906 L 145.347656 159.753906 C 145.042969 160.230469 144.773438 160.863281 144.542969 161.621094 C 144.039062 163.304688 143.722656 165.628906 143.722656 168.1875 C 143.722656 168.414062 143.726562 168.636719 143.730469 168.859375 C 142.714844 168.804688 141.703125 168.71875 140.707031 168.609375 C 140.699219 168.46875 140.695312 168.328125 140.695312 168.1875 C 140.695312 165.746094 141.386719 163.535156 142.496094 161.945312 Z M 145.042969 161.777344 C 144.550781 163.410156 144.246094 165.675781 144.246094 168.1875 C 144.246094 168.421875 144.25 168.652344 144.253906 168.882812 C 145.082031 168.921875 145.914062 168.9375 146.753906 168.9375 C 147.589844 168.9375 148.421875 168.921875 149.25 168.882812 C 149.257812 168.652344 149.261719 168.421875 149.261719 168.1875 C 149.261719 165.675781 148.953125 163.410156 148.460938 161.777344 C 148.191406 160.878906 147.871094 160.179688 147.527344 159.753906 L 145.976562 159.753906 C 145.632812 160.179688 145.316406 160.878906 145.042969 161.777344 Z M 148.960938 161.621094 C 149.46875 163.304688 149.785156 165.628906 149.785156 168.1875 C 149.785156 168.414062 149.78125 168.636719 149.773438 168.859375 C 150.792969 168.804688 151.796875 168.71875 152.800781 168.609375 C 152.804688 168.46875 152.804688 168.328125 152.804688 168.1875 C 152.804688 165.746094 152.121094 163.535156 151.003906 161.945312 C 150.296875 160.929688 149.417969 160.164062 148.4375 159.753906 L 148.15625 159.753906 C 148.460938 160.230469 148.730469 160.863281 148.960938 161.621094 Z M 151.429688 161.636719 C 152.601562 163.316406 153.328125 165.632812 153.328125 168.1875 C 153.328125 168.304688 153.328125 168.429688 153.324219 168.550781 C 154.109375 168.453125 154.886719 168.34375 155.664062 168.21875 C 155.664062 168.207031 155.664062 168.199219 155.664062 168.1875 C 155.664062 164.34375 153.308594 161.066406 149.980469 159.753906 L 149.550781 159.753906 C 150.253906 160.21875 150.890625 160.863281 151.429688 161.636719 Z M 154.144531 173.238281 C 152.542969 175.648438 149.832031 177.234375 146.753906 177.234375 C 143.675781 177.234375 140.957031 175.648438 139.359375 173.238281 C 141.777344 173.5625 144.246094 173.726562 146.753906 173.726562 C 149.257812 173.726562 151.726562 173.5625 154.144531 173.238281 Z M 146.753906 169.277344 C 149.785156 169.277344 152.757812 169.03125 155.65625 168.5625 C 155.636719 169.007812 155.589844 169.449219 155.507812 169.878906 C 152.65625 170.335938 149.730469 170.574219 146.753906 170.574219 C 143.773438 170.574219 140.847656 170.335938 137.996094 169.878906 C 137.917969 169.449219 137.867188 169.007812 137.847656 168.5625 C 140.746094 169.03125 143.722656 169.277344 146.753906 169.277344 Z M 145.941406 170.910156 C 145.964844 171.796875 146 172.628906 146.042969 173.375 C 145.769531 173.371094 145.492188 173.367188 145.214844 173.359375 C 145.101562 172.609375 145.007812 171.777344 144.949219 170.886719 C 145.277344 170.894531 145.609375 170.902344 145.941406 170.910156 Z M 144.753906 170.878906 C 144.332031 170.863281 143.914062 170.84375 143.496094 170.820312 C 143.605469 171.71875 143.761719 172.558594 143.964844 173.3125 C 144.316406 173.328125 144.664062 173.34375 145.015625 173.355469 C 144.902344 172.601562 144.8125 171.769531 144.753906 170.878906 Z M 143.296875 170.804688 C 143.402344 171.703125 143.558594 172.542969 143.757812 173.300781 C 143.425781 173.28125 143.097656 173.261719 142.765625 173.238281 C 142.484375 172.472656 142.261719 171.628906 142.117188 170.71875 C 142.507812 170.753906 142.902344 170.78125 143.296875 170.804688 Z M 141.914062 170.703125 C 141.519531 170.667969 141.117188 170.632812 140.726562 170.585938 C 140.902344 171.503906 141.179688 172.363281 141.542969 173.136719 C 141.875 173.167969 142.214844 173.195312 142.550781 173.222656 C 142.277344 172.457031 142.058594 171.609375 141.914062 170.703125 Z M 140.519531 170.5625 C 140.695312 171.476562 140.964844 172.335938 141.316406 173.113281 C 140.941406 173.078125 140.570312 173.035156 140.199219 172.992188 C 139.761719 172.207031 139.429688 171.335938 139.222656 170.402344 C 139.652344 170.464844 140.085938 170.515625 140.519531 170.5625 Z M 139.015625 170.375 C 138.699219 170.328125 138.382812 170.28125 138.070312 170.230469 C 138.28125 171.167969 138.640625 172.050781 139.117188 172.851562 C 139.398438 172.890625 139.679688 172.929688 139.960938 172.960938 C 139.535156 172.171875 139.214844 171.300781 139.015625 170.375 Z M 147.460938 173.375 C 147.503906 172.628906 147.539062 171.796875 147.5625 170.910156 C 147.894531 170.902344 148.226562 170.894531 148.558594 170.886719 C 148.496094 171.777344 148.402344 172.609375 148.289062 173.359375 C 148.011719 173.367188 147.738281 173.371094 147.460938 173.375 Z M 148.488281 173.355469 C 148.839844 173.34375 149.191406 173.328125 149.539062 173.3125 C 149.746094 172.558594 149.902344 171.71875 150.007812 170.820312 C 149.59375 170.84375 149.171875 170.863281 148.753906 170.878906 C 148.691406 171.769531 148.601562 172.601562 148.488281 173.355469 Z M 149.746094 173.300781 C 149.945312 172.542969 150.101562 171.703125 150.207031 170.804688 C 150.601562 170.78125 150.992188 170.753906 151.386719 170.71875 C 151.242188 171.628906 151.023438 172.472656 150.738281 173.238281 C 150.410156 173.261719 150.078125 173.28125 149.746094 173.300781 Z M 150.953125 173.222656 C 151.289062 173.195312 151.625 173.167969 151.964844 173.136719 C 152.324219 172.363281 152.601562 171.503906 152.78125 170.585938 C 152.382812 170.632812 151.988281 170.667969 151.585938 170.703125 C 151.445312 171.609375 151.230469 172.457031 150.953125 173.222656 Z M 152.191406 173.113281 C 152.542969 172.335938 152.8125 171.476562 152.984375 170.5625 C 153.417969 170.515625 153.851562 170.464844 154.28125 170.402344 C 154.074219 171.335938 153.742188 172.207031 153.308594 172.992188 C 152.933594 173.035156 152.5625 173.078125 152.191406 173.113281 Z M 153.546875 172.960938 C 153.828125 172.929688 154.109375 172.890625 154.386719 172.851562 C 154.863281 172.050781 155.21875 171.167969 155.433594 170.230469 C 155.121094 170.28125 154.804688 170.328125 154.488281 170.375 C 154.289062 171.300781 153.96875 172.171875 153.546875 172.960938 Z M 146.753906 170.914062 C 146.546875 170.914062 146.34375 170.910156 146.140625 170.910156 C 146.160156 171.800781 146.195312 172.632812 146.238281 173.375 C 146.410156 173.378906 146.582031 173.378906 146.753906 173.378906 C 146.925781 173.378906 147.09375 173.378906 147.265625 173.375 C 147.308594 172.632812 147.34375 171.800781 147.367188 170.910156 C 147.160156 170.910156 146.957031 170.914062 146.753906 170.914062 Z M 143.53125 158.480469 L 149.972656 158.480469 L 149.972656 159.515625 L 143.53125 159.515625 Z M 144.394531 157.472656 L 149.109375 157.472656 L 149.109375 158.175781 L 144.394531 158.175781 Z M 144.394531 156.332031 L 149.109375 156.332031 L 149.109375 157.039062 L 144.394531 157.039062 Z M 144.394531 155.191406 L 149.109375 155.191406 L 149.109375 155.898438 L 144.394531 155.898438 Z M 144.394531 154.054688 L 149.109375 154.054688 L 149.109375 154.757812 L 144.394531 154.757812 Z M 144.394531 152.914062 L 149.109375 152.914062 L 149.109375 153.617188 L 144.394531 153.617188 Z M 143.53125 151.472656 L 149.972656 151.472656 L 149.972656 152.511719 L 143.53125 152.511719 Z M 147.722656 151.128906 L 145.511719 151.128906 L 146.492188 105.910156 L 147.011719 105.910156 L 147.992188 151.128906 Z M 146.847656 122.378906 L 146.753906 117.957031 L 146.65625 122.378906 Z M 147.105469 134.222656 L 146.976562 128.300781 L 146.527344 128.300781 L 146.402344 134.222656 Z M 147.359375 146.066406 L 147.230469 140.144531 L 146.273438 140.144531 L 146.140625 146.066406 Z M 143.28125 181.1875 L 150.222656 181.1875 L 150.222656 181.996094 L 143.28125 181.996094 Z M 148.867188 180.878906 L 148.738281 177.542969 C 148.101562 177.691406 147.4375 177.769531 146.753906 177.769531 C 146.011719 177.769531 145.289062 177.675781 144.601562 177.503906 L 144.480469 180.878906 Z M 148.929688 182.4375 L 148.921875 182.308594 L 144.429688 182.308594 L 144.425781 182.4375 Z M 150.839844 252.160156 L 148.980469 183.867188 L 144.375 183.867188 L 142.664062 252.144531 Z M 143.28125 182.75 L 150.222656 182.75 L 150.222656 183.558594 L 143.28125 183.558594 Z M 143.523438 159.753906 C 140.199219 161.066406 137.839844 164.34375 137.839844 168.1875 C 137.839844 168.199219 137.839844 168.207031 137.839844 168.21875 C 138.613281 168.34375 139.394531 168.453125 140.179688 168.550781 C 140.175781 168.429688 140.171875 168.304688 140.171875 168.1875 C 140.171875 165.632812 140.898438 163.316406 142.074219 161.636719 C 142.613281 160.863281 143.253906 160.21875 143.957031 159.753906 L 143.523438 159.753906 " fill-opacity="1" fill-rule="evenodd"/></g><g fill="#000000" fill-opacity="1"><g transform="translate(70.782393, 252.739745)"><g><path d="M 19.765625 -41.96875 C 18.378906 -41.96875 17.242188 -41.507812 16.359375 -40.59375 C 15.484375 -39.6875 15.046875 -38.65625 15.046875 -37.5 L 15.046875 -31.8125 L 24.28125 -31.8125 L 24.28125 -37.453125 C 24.28125 -38.640625 23.875 -39.6875 23.0625 -40.59375 C 22.25 -41.507812 21.148438 -41.96875 19.765625 -41.96875 Z M 35.875 -15.953125 L 35.875 -14.484375 C 35.875 -11.640625 35.1875 -9.046875 33.8125 -6.703125 C 32.4375 -4.367188 30.515625 -2.503906 28.046875 -1.109375 C 25.578125 0.273438 22.710938 0.96875 19.453125 0.96875 C 17.085938 0.96875 14.851562 0.570312 12.75 -0.21875 C 10.65625 -1.019531 8.816406 -2.125 7.234375 -3.53125 C 5.660156 -4.9375 4.425781 -6.578125 3.53125 -8.453125 C 2.632812 -10.335938 2.1875 -12.347656 2.1875 -14.484375 L 2.1875 -37.59375 C 2.1875 -39.726562 2.632812 -41.71875 3.53125 -43.5625 C 4.425781 -45.414062 5.660156 -47.050781 7.234375 -48.46875 C 8.816406 -49.894531 10.65625 -51.003906 12.75 -51.796875 C 14.851562 -52.597656 17.085938 -53 19.453125 -53 C 21.898438 -53 24.128906 -52.597656 26.140625 -51.796875 C 28.160156 -51.003906 29.90625 -49.894531 31.375 -48.46875 C 32.851562 -47.050781 33.988281 -45.414062 34.78125 -43.5625 C 35.570312 -41.71875 35.96875 -39.726562 35.96875 -37.59375 L 35.96875 -25 C 35.96875 -24.425781 35.78125 -23.96875 35.40625 -23.625 C 35.039062 -23.289062 34.570312 -23.125 34 -23.125 L 15.046875 -23.125 L 15.046875 -14.484375 C 15.046875 -13.359375 15.484375 -12.332031 16.359375 -11.40625 C 17.242188 -10.476562 18.378906 -10.015625 19.765625 -10.015625 C 21.222656 -10.015625 22.335938 -10.492188 23.109375 -11.453125 C 23.890625 -12.421875 24.28125 -13.460938 24.28125 -14.578125 L 24.28125 -16.0625 C 24.28125 -16.363281 24.398438 -16.640625 24.640625 -16.890625 C 24.878906 -17.148438 25.234375 -17.28125 25.703125 -17.28125 L 34.546875 -17.28125 C 34.953125 -17.28125 35.273438 -17.1875 35.515625 -17 C 35.753906 -16.8125 35.875 -16.460938 35.875 -15.953125 Z M 35.875 -15.953125 "/></g></g></g><path fill="#00ffff" d="M 103.121094 223.753906 L 172.34375 223.753906 L 172.34375 237.769531 L 103.121094 237.769531 L 103.121094 223.753906 " fill-opacity="1" fill-rule="nonzero"/><g fill="#000000" fill-opacity="1"><g transform="translate(107.991334, 233.762915)"><g><path d="M 5.09375 0.125 C 4.351562 0.125 3.703125 0 3.140625 -0.25 C 2.585938 -0.5 2.128906 -0.832031 1.765625 -1.25 C 1.398438 -1.675781 1.125 -2.148438 0.9375 -2.671875 C 0.75 -3.203125 0.65625 -3.742188 0.65625 -4.296875 C 0.65625 -4.859375 0.75 -5.398438 0.9375 -5.921875 C 1.125 -6.453125 1.398438 -6.925781 1.765625 -7.34375 C 2.128906 -7.769531 2.585938 -8.101562 3.140625 -8.34375 C 3.703125 -8.59375 4.351562 -8.71875 5.09375 -8.71875 C 5.820312 -8.71875 6.460938 -8.59375 7.015625 -8.34375 C 7.578125 -8.101562 8.039062 -7.769531 8.40625 -7.34375 C 8.78125 -6.925781 9.054688 -6.453125 9.234375 -5.921875 C 9.421875 -5.398438 9.515625 -4.859375 9.515625 -4.296875 C 9.515625 -3.742188 9.421875 -3.203125 9.234375 -2.671875 C 9.054688 -2.148438 8.78125 -1.675781 8.40625 -1.25 C 8.039062 -0.832031 7.578125 -0.5 7.015625 -0.25 C 6.460938 0 5.820312 0.125 5.09375 0.125 Z M 5.09375 -1.65625 C 5.570312 -1.65625 5.988281 -1.75 6.34375 -1.9375 C 6.695312 -2.132812 6.976562 -2.390625 7.1875 -2.703125 C 7.394531 -3.023438 7.535156 -3.375 7.609375 -3.75 C 7.679688 -4.125 7.679688 -4.5 7.609375 -4.875 C 7.535156 -5.25 7.394531 -5.59375 7.1875 -5.90625 C 6.976562 -6.226562 6.695312 -6.484375 6.34375 -6.671875 C 5.988281 -6.859375 5.570312 -6.953125 5.09375 -6.953125 C 4.601562 -6.953125 4.179688 -6.859375 3.828125 -6.671875 C 3.472656 -6.484375 3.191406 -6.226562 2.984375 -5.90625 C 2.773438 -5.59375 2.632812 -5.25 2.5625 -4.875 C 2.488281 -4.5 2.488281 -4.125 2.5625 -3.75 C 2.632812 -3.375 2.773438 -3.023438 2.984375 -2.703125 C 3.191406 -2.390625 3.472656 -2.132812 3.828125 -1.9375 C 4.179688 -1.75 4.601562 -1.65625 5.09375 -1.65625 Z M 5.09375 -1.65625 "/></g></g></g><g fill="#000000" fill-opacity="1"><g transform="translate(123.867358, 233.762915)"><g><path d="M 2.671875 -4.671875 L 2.671875 0 L 0.953125 0 L 0.953125 -8.765625 L 1.421875 -8.765625 L 5.75 -3.71875 L 5.75 -8.5625 L 7.46875 -8.5625 L 7.46875 0.1875 L 7.015625 0.1875 Z M 2.671875 -4.671875 "/></g></g></g><g fill="#000000" fill-opacity="1"><g transform="translate(138.027375, 233.762915)"><g><path d="M 0.953125 -8.578125 L 2.671875 -8.578125 L 2.671875 -1.71875 L 5.40625 -1.71875 L 5.40625 0 L 0.953125 0 Z M 0.953125 -8.578125 "/></g></g></g><g fill="#000000" fill-opacity="1"><g transform="translate(149.655387, 233.762915)"><g><path d="M 2.671875 0 L 0.953125 0 L 0.953125 -8.578125 L 2.671875 -8.578125 Z M 2.671875 0 "/></g></g></g><g fill="#000000" fill-opacity="1"><g transform="translate(159.015397, 233.762915)"><g><path d="M 2.671875 -4.671875 L 2.671875 0 L 0.953125 0 L 0.953125 -8.765625 L 1.421875 -8.765625 L 5.75 -3.71875 L 5.75 -8.5625 L 7.46875 -8.5625 L 7.46875 0.1875 L 7.015625 0.1875 Z M 2.671875 -4.671875 "/></g></g></g></svg>